<svg width="277" height="213" viewBox="0 0 277 213" fill="none" xmlns="http://www.w3.org/2000/svg">
<path d="M294.19 198.389C269.956 204.211 243.894 199.404 222.773 185.866C219.998 184.038 217.629 182.346 215.53 180.653C213.093 178.668 210.746 176.547 208.49 174.29C203.142 168.942 198.674 162.985 194.613 156.622C186.963 144.37 181.209 130.899 177.148 116.954C173.424 104.43 171.326 92.3133 171.935 79.2484C172.341 67.4697 175.184 55.2847 182.089 45.2661C182.45 44.7245 182.834 44.1605 183.24 43.5738C182.698 44.2507 183.984 42.6937 184.187 42.4906C185.135 41.3624 186.151 40.3019 187.234 39.3091C187.685 38.8578 188.181 38.4064 188.723 37.9551C188.858 37.8198 190.618 36.466 189.738 37.0752C190.957 36.2178 192.22 35.4505 193.529 34.7736C194.116 34.4577 194.725 34.1643 195.357 33.8936C195.898 33.6228 195.357 33.8935 195.222 33.8935C195.537 33.7582 195.876 33.6453 196.237 33.5551C196.869 33.3746 197.501 33.194 198.132 33.0135C198.493 32.9233 198.832 32.8555 199.148 32.8104C199.486 32.7427 200.366 32.5397 199.554 32.6751C200.908 32.5397 202.262 32.5396 203.548 32.6073C204.563 32.675 204.089 32.6074 203.819 32.6074C204.225 32.6525 204.631 32.6976 205.037 32.7428C205.849 32.9233 206.662 33.1488 207.474 33.4196C207.835 33.5099 208.196 33.6453 208.557 33.8258C208.286 33.6904 207.88 33.4196 208.828 33.9612C209.505 34.2771 210.159 34.6156 210.791 34.9766C211.378 35.2925 211.964 35.6535 212.551 36.0597C212.686 36.1951 213.431 36.8043 212.754 36.2627C213.115 36.5335 213.454 36.7817 213.77 37.0074C216.342 39.309 217.899 41.2721 219.456 43.7767C222.773 48.9891 224.533 54.1339 225.481 60.3617C225.548 60.5648 225.751 62.2571 225.684 61.3771C225.774 62.0991 225.864 62.8212 225.954 63.5433C226.045 64.9874 226.09 66.4315 226.09 67.8757C226.158 70.5157 225.954 73.2911 225.684 75.9989C225.684 76.1343 225.548 77.082 225.684 76.1343C225.639 76.36 225.593 76.6307 225.548 76.9466C225.458 77.5785 225.345 78.1877 225.21 78.7743C224.984 80.1733 224.691 81.5949 224.33 83.039C223.698 85.6565 222.908 88.2514 221.961 90.8238C221.893 91.0269 221.148 92.8546 221.487 91.9746C221.261 92.5613 221.013 93.1254 220.742 93.667C220.155 95.066 219.524 96.4198 218.847 97.7286C217.583 100.166 216.207 102.535 214.717 104.836C213.95 105.965 213.161 107.115 212.348 108.289C212.168 108.469 212.01 108.672 211.874 108.898C211.739 109.033 211.062 109.981 211.468 109.44C211.874 108.898 211.265 109.643 211.333 109.71C210.972 110.071 210.656 110.432 210.385 110.793C208.58 113.05 206.662 115.194 204.631 117.224C202.646 119.21 200.57 121.106 198.403 122.911C197.907 123.317 197.411 123.723 196.914 124.129C196.711 124.332 195.357 125.415 196.169 124.738C194.951 125.686 193.71 126.566 192.446 127.378C190.145 128.958 187.753 130.402 185.271 131.711C184.052 132.388 182.834 133.02 181.615 133.606C180.984 133.877 180.374 134.125 179.788 134.351C179.427 134.531 179.088 134.689 178.772 134.825C177.825 135.231 178.908 134.825 178.298 135.028C166.723 139.699 155.215 141.323 142.895 141.053C117.984 140.511 93.8171 130.966 73.1028 116.615C50.7639 101.181 32.2158 79.3841 21.3848 54.0667C16.037 41.6788 12.8553 27.6662 12.043 13.9921C11.2306 -0.0881735 12.4491 -14.3038 14.6829 -28.181C19.6244 -57.8985 28.4921 -86.9392 41.083 -114.287C44.1517 -120.967 47.4462 -127.555 50.9662 -134.054C47.4462 -134.505 43.9261 -134.957 40.406 -135.408C43.1589 -115.506 45.9119 -95.604 48.6649 -75.702C52.3654 -76.6949 56.0885 -77.6651 59.8342 -78.6129C53.1325 -98.9886 50.2216 -120.177 51.237 -141.5C51.5077 -145.562 46.2276 -149.082 42.7075 -146.51C27.8827 -135.746 15.0887 -122.952 4.25782 -108.195C2.43011 -105.69 3.91938 -101.764 6.42405 -100.342C9.33487 -98.6501 12.4487 -100.004 14.2764 -102.509C23.7535 -115.506 35.3967 -127.014 48.3262 -136.559C45.483 -138.228 42.6399 -139.898 39.7967 -141.568C38.646 -119.297 41.7601 -96.8224 48.6649 -75.702C49.6126 -72.7235 52.5234 -70.7604 55.6373 -71.5727C58.9542 -72.4528 60.2404 -75.499 59.8342 -78.6129C57.0813 -98.5148 54.3283 -118.417 51.5754 -138.319C51.2369 -140.553 48.7323 -142.245 46.7015 -142.516C44.4676 -142.719 42.166 -141.771 41.0153 -139.672C25.6489 -111.309 14.2088 -80.779 7.16878 -49.3691C0.467216 -19.3808 -3.25578 12.6382 5.20598 42.6265C13.4647 71.8701 31.8097 97.7968 54.961 117.157C76.4199 134.96 102.482 147.89 130.372 151.545C143.91 153.305 157.72 152.764 170.988 149.379C183.443 146.265 194.816 140.443 204.834 132.455C223.721 117.495 237.259 94.2085 237.598 69.7711C237.801 56.1646 233.942 42.1521 224.804 31.795C220.133 26.5826 213.77 22.521 206.729 21.4379C199.892 20.4225 192.988 21.7764 186.895 25.2965C174.846 32.2012 167.603 44.86 163.812 57.8572C159.75 71.5313 159.683 85.95 161.646 99.9626C163.677 114.178 168.212 128.055 173.831 141.256C180.262 156.487 188.859 170.905 200.57 182.616C220.404 202.451 248.835 213.282 276.725 212.334C283.63 212.063 290.399 211.115 297.101 209.558C300.079 208.746 301.975 205.497 301.162 202.518C300.35 199.404 297.168 197.712 294.19 198.389Z" fill="#FFD45D"/>
</svg>
