<svg width="278" height="229" viewBox="0 0 278 229" fill="none" xmlns="http://www.w3.org/2000/svg">
<path d="M-16.7763 14.0252C7.45795 8.20353 33.52 13.0097 54.6404 26.5484C57.4158 28.3761 59.785 30.0684 61.8835 31.7607C64.3205 33.7464 66.6672 35.8675 68.9237 38.1239C74.2715 43.4717 78.7392 49.4288 82.8009 55.792C90.4503 68.0445 96.2043 81.5155 100.266 95.4604C103.989 107.984 106.088 120.101 105.478 133.166C105.072 144.944 102.229 157.129 95.3246 167.148C94.9635 167.69 94.5799 168.254 94.1737 168.84C94.7153 168.163 93.4292 169.72 93.2261 169.923C92.2784 171.052 91.263 172.112 90.1799 173.105C89.7286 173.556 89.2322 174.008 88.6906 174.459C88.5552 174.594 86.7952 175.948 87.6752 175.339C86.4567 176.196 85.1931 176.964 83.8844 177.64C83.2977 177.956 82.6885 178.25 82.0567 178.521C81.5152 178.791 82.0567 178.521 82.1921 178.521C81.8762 178.656 81.5377 178.769 81.1767 178.859C80.5448 179.04 79.9131 179.22 79.2812 179.401C78.9202 179.491 78.5817 179.559 78.2658 179.604C77.9274 179.671 77.0473 179.874 77.8597 179.739C76.5058 179.874 75.152 179.874 73.8658 179.807C72.8504 179.739 73.3242 179.807 73.595 179.807C73.1888 179.762 72.7827 179.716 72.3765 179.671C71.5642 179.491 70.7519 179.265 69.9396 178.994C69.5785 178.904 69.2174 178.769 68.8564 178.588C69.1272 178.724 69.5334 178.994 68.5857 178.453C67.9088 178.137 67.2543 177.798 66.6225 177.437C66.0358 177.122 65.4492 176.761 64.8625 176.354C64.7271 176.219 63.9825 175.61 64.6595 176.151C64.2984 175.881 63.9599 175.632 63.644 175.407C61.0717 173.105 59.5148 171.142 57.9578 168.637C54.6408 163.425 52.8807 158.28 51.933 152.052C51.8653 151.849 51.6622 150.157 51.7299 151.037C51.6396 150.315 51.5494 149.593 51.4592 148.871C51.3689 147.427 51.3237 145.983 51.3237 144.538C51.256 141.898 51.4591 139.123 51.7299 136.415C51.7299 136.28 51.8652 135.332 51.7299 136.28C51.775 136.054 51.8201 135.783 51.8652 135.467C51.9555 134.836 52.0683 134.226 52.2037 133.64C52.4294 132.241 52.7227 130.819 53.0837 129.375C53.7155 126.758 54.5053 124.163 55.4529 121.59C55.5206 121.387 56.2653 119.559 55.9268 120.439C56.1525 119.853 56.4006 119.289 56.6714 118.747C57.2581 117.348 57.8899 115.994 58.5669 114.685C59.8305 112.249 61.2069 109.879 62.6961 107.578C63.4633 106.449 64.2531 105.299 65.0654 104.125C65.2459 103.945 65.4038 103.742 65.5392 103.516C65.6746 103.381 66.3515 102.433 65.9454 102.974C65.5392 103.516 66.1484 102.771 66.0807 102.704C66.4418 102.343 66.7577 101.982 67.0284 101.621C68.8336 99.3641 70.7516 97.2205 72.7824 95.1897C74.7681 93.204 76.844 91.3086 79.0102 89.5034C79.5066 89.0972 80.003 88.691 80.4994 88.2849C80.7025 88.0818 82.0564 86.9987 81.2441 87.6757C82.4626 86.7279 83.7036 85.8479 84.9672 85.0356C87.2687 83.4561 89.6606 82.0119 92.1426 80.7032C93.3611 80.0262 94.5797 79.3944 95.7981 78.8078C96.4299 78.537 97.0392 78.2888 97.6258 78.0632C97.9869 77.8826 98.3253 77.7246 98.6412 77.5892C99.5889 77.1831 98.5059 77.5892 99.1151 77.3862C110.691 72.7153 122.199 71.0906 134.519 71.3614C159.43 71.9029 183.597 81.4476 204.311 95.7986C226.65 111.233 245.198 133.03 256.029 158.347C261.377 170.735 264.558 184.748 265.371 198.422C266.183 212.502 264.965 226.718 262.731 240.595C257.789 270.313 248.921 299.353 236.331 326.701C233.262 333.381 229.967 339.969 226.447 346.468C229.967 346.919 233.488 347.371 237.008 347.822C234.255 327.92 231.502 308.018 228.749 288.116C225.048 289.109 221.325 290.079 217.579 291.027C224.281 311.403 227.192 332.591 226.177 353.914C225.906 357.976 231.186 361.496 234.706 358.924C249.531 348.16 262.325 335.366 273.156 320.609C274.983 318.104 273.494 314.178 270.99 312.756C268.079 311.064 264.965 312.418 263.137 314.923C253.66 327.92 242.017 339.428 229.087 348.973C231.931 350.642 234.774 352.312 237.617 353.982C238.768 331.711 235.654 309.236 228.749 288.116C227.801 285.138 224.89 283.174 221.776 283.987C218.459 284.867 217.173 287.913 217.579 291.027C220.332 310.929 223.085 330.831 225.838 350.733C226.177 352.967 228.681 354.659 230.712 354.93C232.946 355.133 235.248 354.185 236.398 352.087C251.765 323.723 263.205 293.193 270.245 261.783C276.946 231.795 280.669 199.776 272.208 169.788C263.949 140.544 245.604 114.617 222.453 95.257C200.994 77.4536 174.932 64.5242 147.042 60.8688C133.503 59.1088 119.694 59.6504 106.426 63.0351C93.9703 66.149 82.5979 71.9707 72.5793 79.9586C53.6928 94.9189 40.1542 118.206 39.8158 142.643C39.6128 156.249 43.4713 170.262 52.61 180.619C57.2808 185.831 63.644 189.893 70.6842 190.976C77.5212 191.992 84.426 190.638 90.5184 187.118C102.568 180.213 109.811 167.554 113.602 154.557C117.663 140.883 117.731 126.464 115.768 112.451C113.737 98.2358 109.201 84.3586 103.583 71.1584C97.1519 55.9273 88.5548 41.5086 76.8438 29.7976C57.0096 9.96343 28.5782 -0.867459 0.688526 0.0803255C-6.21621 0.351117 -12.9855 1.29883 -19.6872 2.8558C-22.6657 3.66813 -24.5611 6.91744 -23.7488 9.89596C-22.9364 13.0099 -19.7548 14.7022 -16.7763 14.0252Z" fill="#FFD45D"/>
</svg>
