<svg width="210" height="210" viewBox="0 0 210 210" fill="none" xmlns="http://www.w3.org/2000/svg">
<g clip-path="url(#clip0_330_3692)">
<path d="M52.4176 52.3352C23.489 52.3352 0 75.8242 0 104.753H104.918C104.918 75.8242 81.4286 52.3352 52.4176 52.3352Z" fill="#C6F264"/>
<path d="M157.417 157.665C186.428 157.665 209.918 134.176 209.918 105.165H104.917C104.917 134.176 128.407 157.665 157.417 157.665Z" fill="#C6F264"/>
<path d="M52.2529 157.5C52.2529 186.429 75.742 210 104.753 210V105C75.742 105 52.2529 128.489 52.2529 157.5Z" fill="#C6F264"/>
<path d="M157.583 52.5C157.583 23.489 134.094 0 105.165 0V105C134.094 105 157.583 81.511 157.583 52.5Z" fill="#C6F264"/>
</g>
<defs>
<clipPath id="clip0_330_3692">
<rect width="209.918" height="210" fill="white"/>
</clipPath>
</defs>
</svg>
