<svg width="56" height="55" viewBox="0 0 56 55" fill="none" xmlns="http://www.w3.org/2000/svg">
<path d="M27.6325 27.4432L27.3679 29.3521C27.3427 29.3395 27.3175 29.3332 27.2923 29.3332L23.1531 54.6408C24.6273 54.8676 26.1393 54.9999 27.6325 54.9999C29.3146 54.9999 31.0156 54.8487 32.66 54.5463L27.8782 28.6717L27.6325 27.4432Z" fill="#FFC1F5"/>
<path d="M27.5945 27.3867L26.1392 28.7097C26.1266 28.6971 26.114 28.6845 26.1014 28.6719L6.72852 45.4554C8.82645 47.8747 11.3213 49.897 14.1185 51.4658L27.0275 28.464L27.5945 27.3867Z" fill="#FFC1F5"/>
<path d="M27.6702 27.4053L28.6908 29.0496C28.6782 29.0622 28.6593 29.0748 28.6341 29.0874L41.6186 51.2008C44.3781 49.5754 46.8351 47.4963 48.8764 45.0393L28.1427 27.7833L27.6702 27.4053Z" fill="#FFC1F5"/>
<path d="M25.6289 27.4249V27.406L0 27.8974C0.056701 31.1293 0.661519 34.2668 1.81444 37.2719L27.6134 27.3682L25.6289 27.4249Z" fill="#FFC1F5"/>
<path d="M55.2459 26.2529L29.6359 27.2735C29.6359 27.2861 29.6359 27.2987 29.6359 27.3113L27.6514 27.368L29.5225 27.9918C29.5225 28.0044 29.5225 28.017 29.5225 28.0296L53.6393 36.7615C54.7167 33.7375 55.2837 30.5811 55.2837 27.3491C55.2837 26.9837 55.2711 26.6183 55.2459 26.2529Z" fill="#FFC1F5"/>
<path d="M27.6514 27.3482L27.9916 27.2159L53.2424 16.9152C52.0139 13.9478 50.3129 11.2262 48.1582 8.84473L29.1256 26.0062C29.1256 26.0188 29.1319 26.0314 29.1445 26.044L27.9727 27.0458L27.6514 27.3482Z" fill="#FFC1F5"/>
<path d="M25.7423 26.6683L27.5945 27.3487H27.6134L6.02921 10.0927C4.02577 12.6065 2.47594 15.4415 1.45532 18.4845L25.7423 26.7061C25.7423 26.6935 25.7423 26.6809 25.7423 26.6683Z" fill="#FFC1F5"/>
<path d="M26.6117 25.6287L27.5945 27.2731L22.0757 0.283386C18.9004 0.925998 15.9141 2.09782 13.1736 3.79885L26.5928 25.6476C26.5928 25.635 26.5991 25.6287 26.6117 25.6287Z" fill="#FFC1F5"/>
<path d="M40.6737 2.96735C37.8197 1.45533 34.7579 0.453608 31.5637 0L27.9349 25.3643L27.6514 27.2732L40.6737 2.96735Z" fill="#FFC1F5"/>
</svg>
