<svg width="13" height="22" viewBox="0 0 13 22" fill="none" xmlns="http://www.w3.org/2000/svg">
<path d="M11.9902 0.595856C10.9814 0.489106 9.96753 0.437226 8.95312 0.440583C5.58984 0.440583 3.5 2.58212 3.5 6.03043V8.37125H0.674805C0.398804 8.37106 0.174927 8.5947 0.174805 8.8707V12.7218C0.174622 12.9978 0.398254 13.2216 0.674255 13.2218H3.5V20.9406C3.49982 21.2166 3.72345 21.4404 3.99945 21.4406H7.97754C8.25354 21.4408 8.47736 21.2171 8.47754 20.9411V13.2218H11.294C11.5452 13.2218 11.7575 13.0354 11.7901 12.7863L12.2872 8.9357C12.3229 8.66202 12.1299 8.41116 11.8562 8.37546C11.8346 8.37265 11.8129 8.37125 11.7911 8.37125H8.47754V6.41226C8.47754 5.44254 8.67285 5.03726 9.88574 5.03726L11.9248 5.03629C12.2008 5.03641 12.4246 4.81284 12.4248 4.53684V1.09195C12.4249 0.840973 12.239 0.628815 11.9902 0.595856ZM11.4248 4.03629L9.88574 4.03726C7.72754 4.03726 7.47754 5.39273 7.47754 6.41226V8.87131C7.47742 9.14725 7.70099 9.37112 7.97699 9.37125H11.2227L10.8545 12.2218H7.97754C7.70154 12.2217 7.47772 12.4453 7.47754 12.7213V20.4406H4.5V12.7218C4.50018 12.4458 4.27655 12.222 4.00061 12.2218H1.1748V9.37125H4C4.276 9.37143 4.49982 9.1478 4.5 8.8718V6.03043C4.5 3.1564 6.16498 1.44058 8.95312 1.44058C9.96191 1.44058 10.873 1.49527 11.4248 1.54312V4.03629Z" fill="#6726DB"/>
</svg>
