<svg width="295" height="199" viewBox="0 0 295 199" fill="none" xmlns="http://www.w3.org/2000/svg">
<path d="M11.7681 -12.1716C15.4442 12.4796 29.6594 34.8459 50.1215 49.3604C52.8555 51.2496 55.3118 52.8128 57.6668 54.1249C60.4205 55.6411 63.266 57.0229 66.2032 58.2703C73.1644 61.2266 80.361 63.1387 87.7821 64.5223C102.008 67.0273 116.653 67.3186 131.104 65.8633C144.111 64.6263 156.132 62.035 168.018 56.5781C178.788 51.7911 189.022 44.5924 195.726 34.4386C196.093 33.901 196.473 33.3341 196.865 32.7378C196.44 33.4934 197.402 31.7179 197.514 31.4535C198.206 30.1523 198.809 28.8137 199.324 27.4376C199.573 26.8502 199.806 26.2209 200.021 25.5497C200.096 25.3735 200.693 23.2346 200.457 24.2787C200.796 22.8278 201.034 21.3688 201.172 19.9018C201.245 19.2396 201.289 18.5648 201.304 17.8776C201.352 17.274 201.304 17.8775 201.354 18.0031C201.362 17.6595 201.339 17.3034 201.288 16.9348C201.219 16.2814 201.15 15.628 201.08 14.9745C201.029 14.606 200.965 14.2668 200.888 13.9569C200.824 13.6177 200.683 12.7257 200.862 13.5296C200.48 12.2236 199.974 10.9682 199.429 9.80096C198.986 8.88478 199.226 9.29877 199.328 9.54985C199.134 9.19013 198.94 8.83043 198.746 8.47071C198.274 7.78508 197.761 7.11632 197.206 6.46449C196.987 6.16351 196.726 5.87941 196.424 5.61223C196.651 5.81261 197.054 6.08789 196.197 5.4119C195.65 4.9025 195.091 4.42243 194.52 3.97177C194.007 3.54606 193.453 3.13726 192.857 2.74534C192.681 2.6705 191.837 2.20819 192.593 2.63311C192.206 2.39972 191.849 2.17879 191.522 1.97036C188.424 0.446943 186.021 -0.261614 183.116 -0.767455C177.041 -1.8914 171.611 -1.59706 165.481 -0.143885C165.268 -0.130613 163.623 0.314746 164.464 0.0480032C163.761 0.234679 163.057 0.421384 162.354 0.608066C160.981 1.06511 159.625 1.56396 158.286 2.1047C155.813 3.03047 153.315 4.25801 150.906 5.52297C150.78 5.57366 149.952 6.05408 150.78 5.57368C150.588 5.70002 150.354 5.84326 150.078 6.0034C149.526 6.32366 149.003 6.65639 148.51 7.0016C147.297 7.73467 146.089 8.53895 144.885 9.41445C142.694 10.9804 140.584 12.6843 138.553 14.5263C138.39 14.6651 136.974 16.0399 137.664 15.3966C137.204 15.8255 136.774 16.2668 136.373 16.7207C135.296 17.7885 134.277 18.8813 133.317 19.9991C131.53 22.0833 129.849 24.2467 128.272 26.4894C127.513 27.6232 126.742 28.7864 125.958 29.979C125.859 30.214 125.729 30.4365 125.571 30.6465C125.496 30.8227 124.871 31.8053 125.221 31.2259C125.571 30.6465 125.108 31.4902 125.02 31.4528C124.821 31.9228 124.604 32.3509 124.371 32.7371C122.955 35.2559 121.685 37.837 120.562 40.4805C119.465 43.0652 118.484 45.6999 117.622 48.3844C117.431 48.9968 117.24 49.6092 117.049 50.2216C116.937 50.4859 116.44 52.1468 116.763 51.1401C116.341 52.6248 115.99 54.1051 115.709 55.5809C115.107 58.3065 114.663 61.0651 114.379 63.8566C114.208 65.2399 114.078 66.6064 113.99 67.9559C113.976 68.6431 113.974 69.301 113.984 69.9295C113.952 70.3318 113.932 70.7048 113.925 71.0484C113.903 72.0793 113.874 70.9229 113.914 71.5639C113.917 84.0463 116.72 95.3253 121.584 106.648C131.414 129.544 149.313 148.379 170.377 162.212C193.052 177.147 220.209 186.184 247.74 186.747C261.229 187.067 275.414 184.77 288.398 180.404C301.758 175.885 314.483 169.432 326.514 162.164C352.219 146.455 375.827 127.358 396.471 105.443C401.515 100.097 406.391 94.5747 411.099 88.8774C412.835 91.9724 414.572 95.0674 416.308 98.1624C396.824 103.062 377.339 107.961 357.854 112.861C357.389 109.058 356.894 105.242 356.37 101.414C377.773 99.9986 398.51 94.764 417.902 85.8382C421.567 84.0663 426.808 87.6442 425.741 91.8714C421.311 109.648 414.239 126.302 404.611 141.871C402.972 144.503 398.774 144.592 396.518 142.802C393.859 140.737 393.949 137.343 395.587 134.71C404.09 121.056 410.401 105.95 414.41 90.3876C417.023 92.3986 419.636 94.4097 422.248 96.4208C402.028 105.827 380.023 111.355 357.854 112.861C354.737 113.097 351.827 111.133 351.414 107.942C350.988 104.537 353.331 102.203 356.37 101.414C375.855 96.5145 395.34 91.6151 414.825 86.7157C417.023 86.1931 419.53 87.8818 420.542 89.6635C421.567 91.6588 421.55 94.1478 420.035 96.0007C399.488 120.87 375.463 142.909 348.974 161.198C323.677 178.641 295.381 194.082 264.406 197.465C234.198 200.757 203.288 193.455 176.667 179.237C152.124 166.006 130.377 146.681 116.544 122.189C109.843 110.294 105.174 97.2865 103.344 83.7165C101.568 71.001 102.708 58.276 106.363 45.9953C113.163 22.881 129.687 1.60789 152.219 -7.85626C164.76 -13.1393 179.198 -14.8084 192.223 -10.2127C198.806 -7.83338 204.954 -3.45393 208.595 2.66849C212.096 8.62794 213.426 15.5373 212.444 22.5046C210.553 36.2628 201.527 47.719 190.895 56.1007C179.737 64.987 166.392 70.4486 152.664 73.8752C138.722 77.315 124.156 78.3057 109.812 78.0385C93.2812 77.7786 76.6923 75.2059 61.4482 68.7319C35.6302 57.7673 14.9414 35.4599 5.3772 9.24426C3.04287 2.74045 1.38692 -3.89128 0.321248 -10.6884C-0.0407948 -13.7544 2.26242 -16.7286 5.32842 -17.0906C8.51996 -17.5034 11.2805 -15.1869 11.7681 -12.1716Z" fill="#8A61F8"/>
</svg>
