<svg width="21" height="20" viewBox="0 0 21 20" fill="none" xmlns="http://www.w3.org/2000/svg">
<path d="M5.50059 6.99964C5.50035 6.99964 5.50078 6.99964 5.50059 6.99964H1.49998C1.22398 6.99946 1.00017 7.22309 0.999982 7.49903C0.999982 7.49885 0.999982 7.49927 0.999982 7.49903V19.4996C0.999799 19.7756 1.22343 19.9995 1.49937 19.9996C1.49919 19.9996 1.49962 19.9996 1.49937 19.9996H5.49998C5.77598 19.9998 5.9998 19.7762 5.99998 19.5002C5.99998 19.5 5.99998 19.5004 5.99998 19.5002V7.49964C6.00017 7.22364 5.77653 6.99982 5.50059 6.99964ZM4.99998 18.9996H1.99998V7.99964H4.99998V18.9996ZM16 6.99964C14.9151 6.9997 13.8606 7.35773 13 8.01819V7.49964C13.0002 7.22364 12.7765 6.99982 12.5006 6.99964C12.5003 6.99964 12.5008 6.99964 12.5006 6.99964H8.49998C8.22398 6.99946 8.00017 7.22309 7.99998 7.49903C7.99998 7.49885 7.99998 7.49927 7.99998 7.49903V19.4996C7.9998 19.7756 8.22343 19.9995 8.49943 19.9996C8.49925 19.9996 8.49962 19.9996 8.49943 19.9996H12.5C12.776 19.9998 12.9998 19.7762 13 19.5002C13 19.5 13 19.5004 13 19.5002V13.9996C13 13.1712 13.6716 12.4996 14.5 12.4996C15.3284 12.4996 16 13.1712 16 13.9996V19.4996C15.9998 19.7756 16.2234 19.9995 16.4994 19.9996C16.4992 19.9996 16.4996 19.9996 16.4994 19.9996H20.5C20.776 19.9998 20.9998 19.7762 21 19.5002C21 19.5 21 19.5004 21 19.5002V11.9996C20.9967 9.23957 18.7601 7.00287 16 6.99964ZM20 18.9996H17V13.9996C17 12.6189 15.8807 11.4996 14.5 11.4996C13.1192 11.4996 12 12.6189 12 13.9996V18.9996H8.99998V7.99964H12V9.20276C12 9.41523 12.1344 9.60444 12.335 9.67444C12.5351 9.74659 12.759 9.68244 12.8907 9.51526C14.2532 7.78846 16.7576 7.49323 18.4844 8.85584C19.4463 9.61487 20.0053 10.7744 20 11.9996V18.9996ZM3.86796 0.00147084C3.75035 -0.00676896 3.63231 -0.00737922 3.51463 -0.000360217C2.00535 -0.103449 0.698286 1.0365 0.595197 2.54578C0.591047 2.60651 0.588972 2.6673 0.58885 2.72816C0.575849 4.22462 1.77842 5.44825 3.27488 5.46125C3.33598 5.4618 3.39702 5.46021 3.45799 5.45661H3.48631C4.99272 5.56202 6.2993 4.42628 6.40471 2.91987C6.51011 1.41346 5.37437 0.106879 3.86796 0.00147084ZM3.83342 4.45948C3.71794 4.4701 3.60161 4.46918 3.48631 4.45661H3.45799C2.50187 4.5301 1.66728 3.81464 1.59379 2.85853C1.52031 1.90247 2.23576 1.06782 3.19188 0.99433C3.29942 0.98609 3.40745 0.98786 3.51463 0.99964C4.47001 0.911627 5.3159 1.61475 5.40397 2.57014C5.49199 3.52558 4.78886 4.37147 3.83342 4.45948Z" fill="#6726DB"/>
</svg>
